<?xml version="1.0" standalone="no"?>
<!DOCTYPE svg PUBLIC "-//W3C//DTD SVG 20010904//EN"
 "http://www.w3.org/TR/2001/REC-SVG-20010904/DTD/svg10.dtd">
<svg version="1.0" xmlns="http://www.w3.org/2000/svg"
 width="720.000000pt" height="720.000000pt" viewBox="0 0 720.000000 720.000000"
 preserveAspectRatio="xMidYMid meet">
<metadata>
Created by potrace 1.14, written by Peter Selinger 2001-2017
</metadata>
<g transform="translate(0.000000,720.000000) scale(0.100000,-0.100000)"
fill="#000000" stroke="none">
<path d="M3494 5281 c-2 -2 -54 -5 -116 -7 -62 -2 -140 -6 -173 -9 -33 -3 -85
-7 -115 -9 -30 -2 -55 -5 -55 -6 0 -1 -13 -3 -30 -5 -27 -2 -72 -10 -128 -21
-32 -6 -100 -16 -122 -19 -11 -1 -38 -7 -60 -13 -39 -11 -70 -18 -130 -29 -16
-3 -38 -9 -47 -14 -9 -5 -21 -9 -25 -8 -4 1 -10 0 -13 -1 -7 -2 -31 -8 -62
-15 -15 -3 -40 -10 -55 -17 -30 -12 -36 -14 -68 -22 -19 -4 -96 -32 -155 -54
-14 -5 -29 -11 -35 -12 -5 -2 -38 -16 -72 -31 -35 -16 -63 -26 -63 -23 0 3
-13 -4 -30 -16 -16 -12 -30 -18 -30 -14 0 5 -5 3 -12 -4 -7 -7 -20 -12 -30
-12 -10 0 -18 -4 -18 -8 0 -4 -25 -19 -55 -32 -30 -13 -55 -28 -55 -32 0 -4
-3 -7 -7 -6 -12 3 -103 -45 -103 -54 0 -4 -6 -8 -12 -8 -11 0 -107 -59 -143
-88 -5 -4 -32 -23 -60 -42 -27 -19 -55 -39 -61 -45 -6 -5 -26 -21 -44 -35 -19
-14 -43 -35 -53 -47 -11 -12 -24 -20 -29 -17 -4 3 -8 1 -8 -5 0 -5 -41 -51
-90 -101 -50 -50 -90 -95 -90 -100 0 -10 -51 -22 -115 -26 -27 -2 -79 -6 -115
-8 -36 -3 -78 -7 -95 -10 -16 -3 -46 -8 -65 -10 -19 -3 -35 -5 -35 -6 0 -2
-16 -5 -85 -15 -19 -2 -48 -7 -65 -10 -16 -3 -48 -7 -70 -10 -55 -7 -90 -13
-90 -15 0 -1 -13 -3 -30 -6 -16 -2 -46 -5 -65 -8 -66 -8 -94 -22 -82 -41 7
-11 8 -16 17 -85 10 -78 13 -95 15 -95 3 0 18 -84 26 -150 2 -16 6 -46 9 -65
4 -19 8 -46 10 -60 2 -14 4 -25 5 -25 3 0 19 -121 22 -165 0 -8 8 -23 16 -33
15 -17 22 -50 23 -114 1 -18 4 -33 8 -33 4 0 8 -10 9 -22 0 -13 3 -35 6 -50 2
-16 0 -30 -5 -34 -5 -3 -6 -11 -2 -17 4 -6 7 -23 7 -37 1 -27 8 -28 101 -15
22 3 54 7 70 9 17 2 41 6 55 9 14 4 37 9 53 12 15 3 39 8 55 11 60 13 80 15
140 17 34 1 62 5 62 9 0 5 9 3 20 -4 10 -7 17 -14 15 -16 -11 -11 125 -231
165 -267 11 -10 20 -21 20 -25 0 -13 185 -200 198 -200 6 0 12 -4 12 -9 0 -6
26 -31 58 -56 31 -25 64 -52 74 -60 56 -46 241 -162 265 -167 5 -1 14 -8 21
-15 7 -7 19 -13 27 -13 7 0 15 -6 18 -14 3 -8 19 -17 36 -21 16 -3 35 -13 42
-21 6 -8 17 -14 23 -14 7 0 34 -11 62 -23 27 -13 74 -34 104 -47 30 -13 71
-30 90 -38 53 -24 163 -63 185 -66 11 -1 38 -10 60 -20 22 -10 49 -19 60 -21
28 -5 60 -13 60 -15 0 -1 7 -3 15 -5 8 -2 26 -7 40 -10 14 -3 32 -8 40 -10 8
-2 16 -4 18 -5 2 -3 1 -2 57 -15 22 -5 48 -9 58 -10 9 -2 18 -3 20 -5 1 -1 11
-3 22 -5 11 -3 32 -7 48 -10 78 -15 158 -27 190 -29 15 0 27 -3 27 -6 0 -5 10
-6 110 -14 30 -2 55 -5 55 -6 0 -7 161 -11 455 -11 316 0 410 3 505 16 22 3
57 7 77 8 21 1 38 4 38 7 0 3 17 6 38 7 20 0 53 3 72 6 31 5 48 9 110 22 8 2
15 4 15 5 0 1 14 3 30 5 17 2 41 6 55 10 14 4 34 8 45 10 11 2 34 8 50 15 17
6 31 11 33 11 1 -1 3 -1 5 0 1 0 17 2 35 5 18 2 43 9 55 16 12 6 31 12 42 13
23 1 61 12 90 25 11 5 61 23 110 39 89 29 138 48 205 78 19 9 35 15 35 13 0
-2 19 9 43 23 23 15 42 25 42 22 0 -3 15 2 33 12 17 9 35 16 40 15 4 -1 7 3 7
8 0 6 9 10 19 10 11 0 21 3 23 8 3 7 25 20 112 66 22 12 45 25 50 29 6 4 43
28 81 53 39 25 75 52 80 58 6 7 12 13 15 12 9 -2 100 67 100 76 0 4 5 8 10 8
6 0 33 22 60 50 28 27 50 47 50 44 0 -2 17 15 38 38 20 23 54 59 75 79 20 20
37 41 37 46 0 5 9 15 20 23 11 8 20 20 20 28 0 7 7 15 15 18 8 4 13 10 10 14
-3 4 2 14 11 21 8 7 24 30 35 51 11 21 24 38 30 38 6 0 8 4 5 9 -8 12 40 102
65 123 20 17 23 16 69 -7 63 -32 90 -38 181 -38 103 0 185 39 282 135 38 38
67 72 64 75 -3 3 3 14 13 25 21 23 66 130 74 174 2 16 5 29 6 29 13 0 17 224
4 234 -5 3 -9 20 -8 36 0 17 -5 41 -11 55 -49 104 -65 131 -105 173 -38 41
-135 108 -162 113 -5 1 -9 3 -10 4 -15 14 -495 19 -526 6 -16 -7 -26 -6 -30 1
-28 43 -74 95 -189 211 -73 72 -136 132 -141 132 -5 0 -23 13 -41 29 -19 17
-61 48 -95 70 -33 22 -69 47 -78 55 -10 9 -21 16 -24 16 -3 0 -19 9 -35 21
-16 11 -29 17 -29 12 0 -4 -4 -2 -8 4 -9 15 -228 128 -322 168 -36 15 -84 36
-107 46 -23 10 -44 19 -47 19 -2 0 -17 5 -33 12 -15 6 -31 12 -35 13 -5 2 -9
3 -10 5 -2 1 -10 3 -18 5 -8 2 -28 9 -45 16 -16 6 -36 13 -44 15 -8 2 -26 6
-40 10 -14 4 -29 8 -33 9 -5 2 -10 4 -13 5 -3 1 -9 4 -15 5 -5 1 -12 4 -15 5
-3 1 -9 4 -15 5 -5 1 -11 3 -12 5 -2 1 -12 3 -23 5 -47 8 -80 17 -90 24 -5 5
-17 8 -25 8 -8 1 -28 4 -45 8 -16 3 -41 8 -55 10 -14 2 -25 4 -25 5 0 5 -82
21 -175 34 -14 2 -25 5 -25 6 0 2 -55 9 -115 14 -19 2 -35 5 -35 6 0 1 -22 4
-50 6 -27 2 -77 6 -110 9 -33 3 -100 7 -150 9 -49 2 -92 5 -95 6 -9 4 -251 5
-256 1z"/>
</g>
</svg>
